<mxfile host="app.diagrams.net" modified="2023-10-26T07:21:28.175Z" agent="Mozilla/5.0 (Windows NT 10.0; Win64; x64) AppleWebKit/537.36 (KHTML, like Gecko) Chrome/118.0.0.0 Safari/537.36 Edg/118.0.2088.61" etag="xJroAJgZEL5riM-NpTtr" version="22.0.8" type="device">
  <diagram name="Страница — 1" id="kRHgtDEGng75pf6uHwAN">
    <mxGraphModel dx="559" dy="1073" grid="1" gridSize="10" guides="1" tooltips="1" connect="1" arrows="1" fold="1" page="1" pageScale="1" pageWidth="827" pageHeight="1169" math="0" shadow="0">
      <root>
        <mxCell id="0" />
        <mxCell id="1" parent="0" />
        <mxCell id="6KeWtUr72Gb5UOMi-wGG-1" value="Администратор" style="shape=umlActor;verticalLabelPosition=bottom;verticalAlign=top;html=1;outlineConnect=0;" vertex="1" parent="1">
          <mxGeometry x="185" y="310" width="30" height="60" as="geometry" />
        </mxCell>
        <mxCell id="6KeWtUr72Gb5UOMi-wGG-2" value="Авторизированный&lt;br&gt;пользователь" style="shape=umlActor;verticalLabelPosition=bottom;verticalAlign=top;html=1;outlineConnect=0;" vertex="1" parent="1">
          <mxGeometry x="520" y="310" width="30" height="60" as="geometry" />
        </mxCell>
        <mxCell id="6KeWtUr72Gb5UOMi-wGG-3" value="Неавторизированный&lt;br&gt;пользователь" style="shape=umlActor;verticalLabelPosition=bottom;verticalAlign=top;html=1;outlineConnect=0;" vertex="1" parent="1">
          <mxGeometry x="185" y="570" width="30" height="60" as="geometry" />
        </mxCell>
        <mxCell id="6KeWtUr72Gb5UOMi-wGG-4" value="&lt;font style=&quot;font-size: 10px;&quot; face=&quot;Times New Roman&quot;&gt;Подписаться/отписаться от автора поста&lt;/font&gt;" style="ellipse;whiteSpace=wrap;html=1;" vertex="1" parent="1">
          <mxGeometry x="320" y="80" width="110" height="60" as="geometry" />
        </mxCell>
        <mxCell id="6KeWtUr72Gb5UOMi-wGG-5" value="&lt;font style=&quot;font-size: 10px;&quot; face=&quot;Times New Roman&quot;&gt;Редактировать/удалять собственные посты&lt;/font&gt;" style="ellipse;whiteSpace=wrap;html=1;" vertex="1" parent="1">
          <mxGeometry x="320" y="150" width="110" height="60" as="geometry" />
        </mxCell>
        <mxCell id="6KeWtUr72Gb5UOMi-wGG-6" value="&lt;font style=&quot;font-size: 10px;&quot; face=&quot;Times New Roman&quot;&gt;Поиск постов&lt;/font&gt;" style="ellipse;whiteSpace=wrap;html=1;" vertex="1" parent="1">
          <mxGeometry x="320" y="220" width="110" height="60" as="geometry" />
        </mxCell>
        <mxCell id="6KeWtUr72Gb5UOMi-wGG-7" value="&lt;font face=&quot;Times New Roman&quot; style=&quot;font-size: 10px;&quot;&gt;Оставить/&lt;br&gt;редактировать/удалить собственный комментарий&lt;/font&gt;" style="ellipse;whiteSpace=wrap;html=1;" vertex="1" parent="1">
          <mxGeometry x="320" y="290" width="110" height="60" as="geometry" />
        </mxCell>
        <mxCell id="6KeWtUr72Gb5UOMi-wGG-8" value="&lt;font style=&quot;font-size: 10px;&quot; face=&quot;Times New Roman&quot;&gt;Оценить пост лайком&lt;/font&gt;" style="ellipse;whiteSpace=wrap;html=1;" vertex="1" parent="1">
          <mxGeometry x="320" y="360" width="110" height="60" as="geometry" />
        </mxCell>
        <mxCell id="6KeWtUr72Gb5UOMi-wGG-9" value="&lt;font face=&quot;Times New Roman&quot; style=&quot;font-size: 10px;&quot;&gt;Просмотр постов от авторов из подписок&lt;/font&gt;" style="ellipse;whiteSpace=wrap;html=1;" vertex="1" parent="1">
          <mxGeometry x="320" y="430" width="110" height="60" as="geometry" />
        </mxCell>
        <mxCell id="6KeWtUr72Gb5UOMi-wGG-10" value="&lt;font face=&quot;Times New Roman&quot; style=&quot;font-size: 10px;&quot;&gt;Писать сообщения в общий чат&lt;/font&gt;" style="ellipse;whiteSpace=wrap;html=1;" vertex="1" parent="1">
          <mxGeometry x="320" y="500" width="110" height="60" as="geometry" />
        </mxCell>
        <mxCell id="6KeWtUr72Gb5UOMi-wGG-12" value="Просматривать все посты" style="ellipse;whiteSpace=wrap;html=1;" vertex="1" parent="1">
          <mxGeometry x="320" y="570" width="110" height="60" as="geometry" />
        </mxCell>
        <mxCell id="6KeWtUr72Gb5UOMi-wGG-13" value="&lt;font face=&quot;Times New Roman&quot; style=&quot;font-size: 10px;&quot;&gt;Авторизация&lt;/font&gt;" style="ellipse;whiteSpace=wrap;html=1;" vertex="1" parent="1">
          <mxGeometry x="10" y="535" width="110" height="60" as="geometry" />
        </mxCell>
        <mxCell id="6KeWtUr72Gb5UOMi-wGG-14" value="&lt;font face=&quot;Times New Roman&quot; style=&quot;font-size: 10px;&quot;&gt;Регистрация&lt;/font&gt;" style="ellipse;whiteSpace=wrap;html=1;" vertex="1" parent="1">
          <mxGeometry x="10" y="605" width="110" height="60" as="geometry" />
        </mxCell>
        <mxCell id="6KeWtUr72Gb5UOMi-wGG-17" value="&lt;font style=&quot;font-size: 10px;&quot;&gt;Удалять чужие комментарии&lt;/font&gt;" style="ellipse;whiteSpace=wrap;html=1;" vertex="1" parent="1">
          <mxGeometry x="10" y="275" width="110" height="60" as="geometry" />
        </mxCell>
        <mxCell id="6KeWtUr72Gb5UOMi-wGG-18" value="&lt;font size=&quot;1&quot;&gt;Удалять чужие&lt;br&gt;посты&lt;/font&gt;" style="ellipse;whiteSpace=wrap;html=1;" vertex="1" parent="1">
          <mxGeometry x="10" y="345" width="110" height="60" as="geometry" />
        </mxCell>
        <mxCell id="6KeWtUr72Gb5UOMi-wGG-23" value="" style="endArrow=classic;html=1;rounded=0;exitX=0.5;exitY=0.5;exitDx=0;exitDy=0;exitPerimeter=0;entryX=1;entryY=0.5;entryDx=0;entryDy=0;" edge="1" parent="1" source="6KeWtUr72Gb5UOMi-wGG-1" target="6KeWtUr72Gb5UOMi-wGG-17">
          <mxGeometry width="50" height="50" relative="1" as="geometry">
            <mxPoint x="110" y="320" as="sourcePoint" />
            <mxPoint x="160" y="270" as="targetPoint" />
          </mxGeometry>
        </mxCell>
        <mxCell id="6KeWtUr72Gb5UOMi-wGG-24" value="" style="endArrow=classic;html=1;rounded=0;exitX=0.5;exitY=0.5;exitDx=0;exitDy=0;exitPerimeter=0;entryX=1;entryY=0.5;entryDx=0;entryDy=0;" edge="1" parent="1" source="6KeWtUr72Gb5UOMi-wGG-1" target="6KeWtUr72Gb5UOMi-wGG-18">
          <mxGeometry width="50" height="50" relative="1" as="geometry">
            <mxPoint x="210" y="350" as="sourcePoint" />
            <mxPoint x="130" y="320" as="targetPoint" />
          </mxGeometry>
        </mxCell>
        <mxCell id="6KeWtUr72Gb5UOMi-wGG-25" value="" style="endArrow=classic;html=1;rounded=0;exitX=0.5;exitY=0.5;exitDx=0;exitDy=0;exitPerimeter=0;entryX=0;entryY=0.5;entryDx=0;entryDy=0;" edge="1" parent="1" source="6KeWtUr72Gb5UOMi-wGG-1" target="6KeWtUr72Gb5UOMi-wGG-6">
          <mxGeometry width="50" height="50" relative="1" as="geometry">
            <mxPoint x="210" y="350" as="sourcePoint" />
            <mxPoint x="130" y="385" as="targetPoint" />
          </mxGeometry>
        </mxCell>
        <mxCell id="6KeWtUr72Gb5UOMi-wGG-26" value="" style="endArrow=classic;html=1;rounded=0;entryX=0;entryY=0.5;entryDx=0;entryDy=0;" edge="1" parent="1" target="6KeWtUr72Gb5UOMi-wGG-5">
          <mxGeometry width="50" height="50" relative="1" as="geometry">
            <mxPoint x="200" y="340" as="sourcePoint" />
            <mxPoint x="330" y="260" as="targetPoint" />
          </mxGeometry>
        </mxCell>
        <mxCell id="6KeWtUr72Gb5UOMi-wGG-27" value="" style="endArrow=classic;html=1;rounded=0;entryX=0;entryY=0.5;entryDx=0;entryDy=0;" edge="1" parent="1" target="6KeWtUr72Gb5UOMi-wGG-4">
          <mxGeometry width="50" height="50" relative="1" as="geometry">
            <mxPoint x="200" y="340" as="sourcePoint" />
            <mxPoint x="330" y="190" as="targetPoint" />
          </mxGeometry>
        </mxCell>
        <mxCell id="6KeWtUr72Gb5UOMi-wGG-28" style="edgeStyle=orthogonalEdgeStyle;rounded=0;orthogonalLoop=1;jettySize=auto;html=1;exitX=0.5;exitY=0.5;exitDx=0;exitDy=0;exitPerimeter=0;" edge="1" parent="1" source="6KeWtUr72Gb5UOMi-wGG-3">
          <mxGeometry relative="1" as="geometry">
            <mxPoint x="320" y="600" as="targetPoint" />
          </mxGeometry>
        </mxCell>
        <mxCell id="6KeWtUr72Gb5UOMi-wGG-29" value="" style="endArrow=classic;html=1;rounded=0;exitX=0.5;exitY=0.5;exitDx=0;exitDy=0;exitPerimeter=0;entryX=1;entryY=0.5;entryDx=0;entryDy=0;" edge="1" parent="1">
          <mxGeometry width="50" height="50" relative="1" as="geometry">
            <mxPoint x="200" y="600" as="sourcePoint" />
            <mxPoint x="120" y="565" as="targetPoint" />
          </mxGeometry>
        </mxCell>
        <mxCell id="6KeWtUr72Gb5UOMi-wGG-30" value="" style="endArrow=classic;html=1;rounded=0;exitX=0.5;exitY=0.5;exitDx=0;exitDy=0;exitPerimeter=0;entryX=1;entryY=0.5;entryDx=0;entryDy=0;" edge="1" parent="1">
          <mxGeometry width="50" height="50" relative="1" as="geometry">
            <mxPoint x="200" y="600" as="sourcePoint" />
            <mxPoint x="120" y="635" as="targetPoint" />
          </mxGeometry>
        </mxCell>
        <mxCell id="6KeWtUr72Gb5UOMi-wGG-31" value="" style="endArrow=classic;html=1;rounded=0;entryX=0;entryY=0.5;entryDx=0;entryDy=0;" edge="1" parent="1" target="6KeWtUr72Gb5UOMi-wGG-10">
          <mxGeometry width="50" height="50" relative="1" as="geometry">
            <mxPoint x="200" y="340" as="sourcePoint" />
            <mxPoint x="290" y="470" as="targetPoint" />
          </mxGeometry>
        </mxCell>
        <mxCell id="6KeWtUr72Gb5UOMi-wGG-32" value="" style="endArrow=classic;html=1;rounded=0;entryX=0;entryY=0.5;entryDx=0;entryDy=0;" edge="1" parent="1" target="6KeWtUr72Gb5UOMi-wGG-9">
          <mxGeometry width="50" height="50" relative="1" as="geometry">
            <mxPoint x="200" y="340" as="sourcePoint" />
            <mxPoint x="330" y="540" as="targetPoint" />
          </mxGeometry>
        </mxCell>
        <mxCell id="6KeWtUr72Gb5UOMi-wGG-33" value="" style="endArrow=classic;html=1;rounded=0;entryX=0;entryY=0.5;entryDx=0;entryDy=0;exitX=0.5;exitY=0.5;exitDx=0;exitDy=0;exitPerimeter=0;" edge="1" parent="1" source="6KeWtUr72Gb5UOMi-wGG-1" target="6KeWtUr72Gb5UOMi-wGG-8">
          <mxGeometry width="50" height="50" relative="1" as="geometry">
            <mxPoint x="200" y="600" as="sourcePoint" />
            <mxPoint x="330" y="470" as="targetPoint" />
          </mxGeometry>
        </mxCell>
        <mxCell id="6KeWtUr72Gb5UOMi-wGG-34" value="" style="endArrow=classic;html=1;rounded=0;entryX=0;entryY=0.5;entryDx=0;entryDy=0;" edge="1" parent="1" target="6KeWtUr72Gb5UOMi-wGG-12">
          <mxGeometry width="50" height="50" relative="1" as="geometry">
            <mxPoint x="200" y="340" as="sourcePoint" />
            <mxPoint x="330" y="540" as="targetPoint" />
          </mxGeometry>
        </mxCell>
        <mxCell id="6KeWtUr72Gb5UOMi-wGG-36" value="" style="endArrow=classic;html=1;rounded=0;entryX=0;entryY=0.5;entryDx=0;entryDy=0;" edge="1" parent="1" target="6KeWtUr72Gb5UOMi-wGG-7">
          <mxGeometry width="50" height="50" relative="1" as="geometry">
            <mxPoint x="200" y="340" as="sourcePoint" />
            <mxPoint x="330" y="400" as="targetPoint" />
          </mxGeometry>
        </mxCell>
        <mxCell id="6KeWtUr72Gb5UOMi-wGG-37" value="" style="endArrow=classic;html=1;rounded=0;exitX=0.5;exitY=0.5;exitDx=0;exitDy=0;exitPerimeter=0;entryX=1;entryY=0.5;entryDx=0;entryDy=0;" edge="1" parent="1" source="6KeWtUr72Gb5UOMi-wGG-2" target="6KeWtUr72Gb5UOMi-wGG-7">
          <mxGeometry width="50" height="50" relative="1" as="geometry">
            <mxPoint x="420" y="360" as="sourcePoint" />
            <mxPoint x="470" y="310" as="targetPoint" />
          </mxGeometry>
        </mxCell>
        <mxCell id="6KeWtUr72Gb5UOMi-wGG-38" value="" style="endArrow=classic;html=1;rounded=0;exitX=0.5;exitY=0.5;exitDx=0;exitDy=0;exitPerimeter=0;entryX=1;entryY=0.5;entryDx=0;entryDy=0;" edge="1" parent="1" source="6KeWtUr72Gb5UOMi-wGG-2" target="6KeWtUr72Gb5UOMi-wGG-8">
          <mxGeometry width="50" height="50" relative="1" as="geometry">
            <mxPoint x="545" y="350" as="sourcePoint" />
            <mxPoint x="440" y="330" as="targetPoint" />
          </mxGeometry>
        </mxCell>
        <mxCell id="6KeWtUr72Gb5UOMi-wGG-39" value="" style="endArrow=classic;html=1;rounded=0;exitX=0.5;exitY=0.5;exitDx=0;exitDy=0;exitPerimeter=0;entryX=1;entryY=0.5;entryDx=0;entryDy=0;" edge="1" parent="1" source="6KeWtUr72Gb5UOMi-wGG-2" target="6KeWtUr72Gb5UOMi-wGG-9">
          <mxGeometry width="50" height="50" relative="1" as="geometry">
            <mxPoint x="545" y="350" as="sourcePoint" />
            <mxPoint x="440" y="400" as="targetPoint" />
          </mxGeometry>
        </mxCell>
        <mxCell id="6KeWtUr72Gb5UOMi-wGG-40" value="" style="endArrow=classic;html=1;rounded=0;exitX=0.5;exitY=0.5;exitDx=0;exitDy=0;exitPerimeter=0;entryX=1;entryY=0.5;entryDx=0;entryDy=0;" edge="1" parent="1" source="6KeWtUr72Gb5UOMi-wGG-2" target="6KeWtUr72Gb5UOMi-wGG-10">
          <mxGeometry width="50" height="50" relative="1" as="geometry">
            <mxPoint x="545" y="350" as="sourcePoint" />
            <mxPoint x="440" y="470" as="targetPoint" />
          </mxGeometry>
        </mxCell>
        <mxCell id="6KeWtUr72Gb5UOMi-wGG-41" value="" style="endArrow=classic;html=1;rounded=0;exitX=0.5;exitY=0.5;exitDx=0;exitDy=0;exitPerimeter=0;entryX=1.002;entryY=0.448;entryDx=0;entryDy=0;entryPerimeter=0;" edge="1" parent="1" source="6KeWtUr72Gb5UOMi-wGG-2" target="6KeWtUr72Gb5UOMi-wGG-12">
          <mxGeometry width="50" height="50" relative="1" as="geometry">
            <mxPoint x="545" y="350" as="sourcePoint" />
            <mxPoint x="440" y="540" as="targetPoint" />
          </mxGeometry>
        </mxCell>
        <mxCell id="6KeWtUr72Gb5UOMi-wGG-42" value="" style="endArrow=classic;html=1;rounded=0;exitX=0.5;exitY=0.5;exitDx=0;exitDy=0;exitPerimeter=0;entryX=1;entryY=0.5;entryDx=0;entryDy=0;" edge="1" parent="1" source="6KeWtUr72Gb5UOMi-wGG-2" target="6KeWtUr72Gb5UOMi-wGG-6">
          <mxGeometry width="50" height="50" relative="1" as="geometry">
            <mxPoint x="545" y="350" as="sourcePoint" />
            <mxPoint x="440" y="330" as="targetPoint" />
          </mxGeometry>
        </mxCell>
        <mxCell id="6KeWtUr72Gb5UOMi-wGG-43" value="" style="endArrow=classic;html=1;rounded=0;entryX=1;entryY=0.5;entryDx=0;entryDy=0;exitX=0.5;exitY=0.5;exitDx=0;exitDy=0;exitPerimeter=0;" edge="1" parent="1" source="6KeWtUr72Gb5UOMi-wGG-2" target="6KeWtUr72Gb5UOMi-wGG-5">
          <mxGeometry width="50" height="50" relative="1" as="geometry">
            <mxPoint x="560" y="320" as="sourcePoint" />
            <mxPoint x="440" y="260" as="targetPoint" />
          </mxGeometry>
        </mxCell>
        <mxCell id="6KeWtUr72Gb5UOMi-wGG-44" value="" style="endArrow=classic;html=1;rounded=0;entryX=1;entryY=0.5;entryDx=0;entryDy=0;exitX=0.5;exitY=0.5;exitDx=0;exitDy=0;exitPerimeter=0;" edge="1" parent="1" source="6KeWtUr72Gb5UOMi-wGG-2" target="6KeWtUr72Gb5UOMi-wGG-4">
          <mxGeometry width="50" height="50" relative="1" as="geometry">
            <mxPoint x="560.5405405405405" y="340" as="sourcePoint" />
            <mxPoint x="440" y="190" as="targetPoint" />
          </mxGeometry>
        </mxCell>
      </root>
    </mxGraphModel>
  </diagram>
</mxfile>
